<svg width="200" height="200" viewBox="0 0 200 200" fill="none" xmlns="http://www.w3.org/2000/svg">
<path fill-rule="evenodd" clip-rule="evenodd" d="M68.35 14.6449C63.85 16.5949 57.25 19.8949 53.5 22.1449C49.75 24.2449 45.55 26.9449 44.2 27.9949C42.7 29.0449 41.65 31.2949 41.65 32.9449C41.65 34.5949 43.9 41.6449 46.6 48.6949C49.3 55.7449 52.15 62.7949 52.9 64.4449C53.8 66.5449 52.45 65.9449 47.95 62.1949C44.65 59.3449 38.5 55.1449 34.15 52.8949C29.95 50.4949 25.9 48.9949 25 49.4449C24.25 49.8949 21.55 54.0949 19.15 58.8949C16.75 63.5449 13.75 71.4949 12.4 76.4449C11.05 81.3949 10 86.9449 10 88.8949C10 91.7449 11.35 92.4949 20.2 94.5949C25.75 95.9449 31.6 97.5949 33.25 98.1949L36.25 99.5449C31.6 99.5449 25.75 101.045 20.2 102.695C11.5 105.245 10 106.145 10 109.145C10 110.945 11.05 116.645 12.25 121.895C13.45 126.995 16.6 135.245 19 140.195L19.1954 140.579C23.5009 149.049 23.5617 149.168 27.7 147.395C29.95 146.345 35.5 143.345 40 140.795C44.5 138.245 49.3 134.945 50.5 133.595C51.7 132.245 53.2 131.045 53.95 131.195C54.55 131.195 54.1 132.695 52.9 134.645C51.7 136.445 48.25 144.695 45.25 152.945L39.85 167.945C46.3 173.195 53.65 177.395 60.25 180.695C66.85 183.995 73.75 186.695 75.7 186.695C78.4 186.695 80.2 184.445 84.85 175.145C88 168.695 92.35 157.895 94.6 151.145C96.7 144.245 98.5 137.345 98.5 135.695C98.5 134.045 99.25 132.695 100 132.695C100.9 132.695 101.5 134.345 101.5 136.445C101.5 138.545 103.15 145.445 105.25 151.895C107.5 158.195 111.85 168.995 115 175.895C120.4 186.845 121.3 188.045 124.45 187.295C126.25 186.845 131.5 184.745 136 182.795C140.5 180.695 147.4 176.945 151.3 174.245C155.35 171.545 158.5 168.395 158.5 167.195C158.5 165.995 157 160.295 155.05 154.445C153.1 148.745 149.95 141.095 148.15 137.645C146.5 134.045 145.3 131.195 145.75 131.195C146.2 131.195 148.75 132.995 151.45 135.095C154 137.345 160.75 141.395 166.45 144.095L176.5 149.195C183.25 135.845 186.25 127.895 187.6 122.945C188.95 117.995 190 112.145 190 109.895C190 105.995 189.25 105.395 179.95 102.695C174.25 101.045 168.4 99.5449 166.75 99.5449H163.75C168.4 97.5949 174.25 95.9449 179.95 94.5949C188.65 92.4949 190 91.7449 190 88.8949C190 86.9449 188.95 81.5449 187.75 76.8949C186.55 72.0949 183.4 64.1449 181 59.1949C178.6 54.2449 175.9 49.8949 175 49.4449C174.25 48.9949 170.2 50.3449 166 52.4449C161.95 54.5449 155.95 58.5949 152.95 61.4449C149.8 64.2949 146.65 66.6949 145.75 66.6949C144.85 66.8449 145 65.9449 146.05 64.8949C146.95 63.8449 149.8 57.5449 152.35 50.9449C154.9 44.3449 157.45 36.9949 157.9 34.4449C158.5 30.3949 157.9 29.4949 151.45 25.1449C147.55 22.4449 140.5 18.6949 136 16.5949C131.5 14.6449 126.4 12.6949 124.75 12.3949C122.35 12.0949 120.4 14.6449 114.25 26.9449C109.9 35.3449 105.4 47.3449 103.75 54.2449C102.1 61.1449 100.3 66.6949 99.7 66.6949C98.95 66.6949 98.5 65.3449 98.5 63.6949C98.5 62.0449 96.4 54.6949 94 47.1949C91.6 39.8449 87.1 29.0449 84.25 23.1949C81.4 17.4949 78.4 12.3949 77.65 12.0949C77.05 11.6449 72.7 12.8449 68.35 14.6449ZM130.599 88.1442C128.199 90.6942 123.549 93.9942 120.249 95.3442C116.949 96.8442 112.749 98.1942 110.949 98.1942C108.999 98.1942 107.199 98.7942 106.749 99.6942C106.299 100.594 107.349 101.194 108.999 101.194C110.649 101.194 115.149 102.694 119.049 104.644C122.949 106.444 128.499 110.194 131.499 112.894C134.349 115.594 136.899 117.844 137.199 117.694C137.349 117.694 136.899 116.494 136.149 115.144C135.399 113.644 134.349 109.144 133.749 104.944C133.149 100.894 133.449 94.4442 134.199 90.6942C134.949 87.0942 135.549 83.9442 135.249 83.7942C135.099 83.6442 132.999 85.5942 130.599 88.1442ZM64.2986 84.9942C64.8986 86.4942 65.6486 90.8442 66.2486 94.7442C66.8486 98.7942 66.5486 104.644 65.7986 107.944C65.0486 111.244 63.8486 115.294 63.0986 116.944C62.3486 118.744 64.2986 117.544 67.8986 113.944C71.1986 110.644 77.0486 106.444 80.9486 104.644C84.8486 102.694 89.3486 101.194 90.9986 101.194C92.6486 101.194 93.6986 100.594 93.2486 99.6942C92.7986 98.7942 90.9986 98.1942 89.1986 98.1942C87.2486 98.1942 83.0486 96.8442 79.7486 95.3442C76.4486 93.8442 71.4986 90.2442 68.6486 87.5442C65.6486 84.5442 63.8486 83.4942 64.2986 84.9942Z" fill="#6495ED"/>
</svg>
