<svg width="400" height="400" viewBox="0 0 400 400" fill="none" xmlns="http://www.w3.org/2000/svg">
<path fill-rule="evenodd" clip-rule="evenodd" d="M136.7 30.2898C127.7 34.1898 114.5 40.7898 107 45.2898C99.5 49.4898 91.1 54.8898 88.4 56.9898C85.4 59.0898 83.3 63.5898 83.3 66.8898C83.3 70.1898 87.8 84.2898 93.2 98.3898C98.6 112.49 104.3 126.59 105.8 129.89C107.6 134.09 104.9 132.89 95.9 125.39C89.3 119.69 77 111.29 68.3 106.79C59.9 101.99 51.8 98.9898 50 99.8898C48.5 100.79 43.1 109.19 38.3 118.79C33.5 128.09 27.5 143.99 24.8 153.89C22.1 163.79 20 174.89 20 178.79C20 184.49 22.7 185.99 40.4 190.19C51.5 192.89 63.2 196.19 66.5 197.39L72.5 200.09C63.2 200.09 51.5 203.09 40.4 206.39C23 211.49 20 213.29 20 219.29C20 222.89 22.1 234.29 24.5 244.79C26.9 254.99 33.2 271.49 38 281.39L38.3908 282.159C47.0018 299.098 47.1234 299.337 55.4 295.79C59.9 293.69 71 287.69 80 282.59C89 277.49 98.6 270.89 101 268.19C103.4 265.49 106.4 263.09 107.9 263.39C109.1 263.39 108.2 266.39 105.8 270.29C103.4 273.89 96.5 290.39 90.5 306.89L79.7 336.89C92.6 347.39 107.3 355.79 120.5 362.39C133.7 368.99 147.5 374.39 151.4 374.39C156.8 374.39 160.4 369.89 169.7 351.29C176 338.39 184.7 316.79 189.2 303.29C193.4 289.49 197 275.69 197 272.39C197 269.09 198.5 266.39 200 266.39C201.8 266.39 203 269.69 203 273.89C203 278.09 206.3 291.89 210.5 304.79C215 317.39 223.7 338.99 230 352.79C240.8 374.69 242.6 377.09 248.9 375.59C252.5 374.69 263 370.49 272 366.59C281 362.39 294.8 354.89 302.6 349.49C310.7 344.09 317 337.79 317 335.39C317 332.99 314 321.59 310.1 309.89C306.2 298.49 299.9 283.19 296.3 276.29C293 269.09 290.6 263.39 291.5 263.39C292.4 263.39 297.5 266.99 302.9 271.19C308 275.69 321.5 283.79 332.9 289.19L353 299.39C366.5 272.69 372.5 256.79 375.2 246.89C377.9 236.99 380 225.29 380 220.79C380 212.99 378.5 211.79 359.9 206.39C348.5 203.09 336.8 200.09 333.5 200.09H327.5C336.8 196.19 348.5 192.89 359.9 190.19C377.3 185.99 380 184.49 380 178.79C380 174.89 377.9 164.09 375.5 154.79C373.1 145.19 366.8 129.29 362 119.39C357.2 109.49 351.8 100.79 350 99.8898C348.5 98.9898 340.4 101.69 332 105.89C323.9 110.09 311.9 118.19 305.9 123.89C299.6 129.59 293.3 134.39 291.5 134.39C289.7 134.69 290 132.89 292.1 130.79C293.9 128.69 299.6 116.09 304.7 102.89C309.8 89.6898 314.9 74.9898 315.8 69.8898C317 61.7898 315.8 59.9898 302.9 51.2898C295.1 45.8898 281 38.3898 272 34.1898C263 30.2898 252.8 26.3898 249.5 25.7898C244.7 25.1898 240.8 30.2898 228.5 54.8898C219.8 71.6898 210.8 95.6898 207.5 109.49C204.2 123.29 200.6 134.39 199.4 134.39C197.9 134.39 197 131.69 197 128.39C197 125.09 192.8 110.39 188 95.3898C183.2 80.6898 174.2 59.0898 168.5 47.3898C162.8 35.9898 156.8 25.7898 155.3 25.1898C154.1 24.2898 145.4 26.6898 136.7 30.2898ZM261.197 177.289C256.397 182.389 247.097 188.989 240.497 191.689C233.897 194.689 225.497 197.389 221.897 197.389C217.997 197.389 214.397 198.589 213.497 200.389C212.597 202.189 214.697 203.389 217.997 203.389C221.297 203.389 230.297 206.389 238.097 210.289C245.897 213.889 256.997 221.389 262.997 226.789C268.697 232.189 273.797 236.689 274.397 236.389C274.697 236.389 273.797 233.989 272.297 231.289C270.797 228.289 268.697 219.289 267.497 210.889C266.297 202.789 266.897 189.889 268.397 182.389C269.897 175.189 271.097 168.889 270.497 168.589C270.197 168.289 265.997 172.189 261.197 177.289ZM128.597 170.989C129.797 173.989 131.297 182.689 132.497 190.489C133.697 198.589 133.097 210.289 131.597 216.889C130.097 223.489 127.697 231.589 126.197 234.889C124.697 238.489 128.597 236.089 135.797 228.889C142.397 222.289 154.097 213.889 161.897 210.289C169.697 206.389 178.697 203.389 181.997 203.389C185.297 203.389 187.397 202.189 186.497 200.389C185.597 198.589 181.997 197.389 178.397 197.389C174.497 197.389 166.097 194.689 159.497 191.689C152.897 188.689 142.997 181.489 137.297 176.089C131.297 170.089 127.697 167.989 128.597 170.989Z" fill="#6495ED"/>
</svg>
